HIERARCHY
ROOT Hips
{
  OFFSET 43.0842 91.1655 101.099
  CHANNELS 6 Xposition Yposition Zposition Zrotation Xrotation Yrotation
  JOINT LeftUpLeg
  {
    OFFSET 8.64259 1.95398 -2.38835
    CHANNELS 3 Zrotation Xrotation Yrotation
    JOINT LeftLeg
    {
      OFFSET 43.7702 0 0
      CHANNELS 3 Zrotation Xrotation Yrotation
      JOINT LeftFoot
      {
        OFFSET 40.6238 0 0
        CHANNELS 3 Zrotation Xrotation Yrotation
        JOINT LeftToeBase
        {
          OFFSET 12.7242 0 0
          CHANNELS 3 Zrotation Xrotation Yrotation
          End Site
          {
            OFFSET 0 0 0
          }
        }
      }
    }
  }
  JOINT RightUpLeg
  {
    OFFSET -8.2249 1.95398 -2.59336
    CHANNELS 3 Zrotation Xrotation Yrotation
    JOINT RightLeg
    {
      OFFSET 43.5653 0 0
      CHANNELS 3 Zrotation Xrotation Yrotation
      JOINT RightFoot
      {
        OFFSET 40.6238 0 0
        CHANNELS 3 Zrotation Xrotation Yrotation
        JOINT RightToeBase
        {
          OFFSET 12.7242 0 0
          CHANNELS 3 Zrotation Xrotation Yrotation
          End Site
          {
            OFFSET 0 0 0
          }
        }
      }
    }
  }
  JOINT Spine
  {
    OFFSET 0.165834 0.87714 6.61349
    CHANNELS 3 Zrotation Xrotation Yrotation
    JOINT Spine1
    {
      OFFSET 7.38963 1.71661e-005 0
      CHANNELS 3 Zrotation Xrotation Yrotation
      JOINT Spine2
      {
        OFFSET 11.9445 1.14441e-005 0
        CHANNELS 3 Zrotation Xrotation Yrotation
        JOINT Spine3
        {
          OFFSET 14.7254 4.19617e-005 0
          CHANNELS 3 Zrotation Xrotation Yrotation
          JOINT Spine4
          {
            OFFSET 10.9679 0 0
            CHANNELS 3 Zrotation Xrotation Yrotation
            JOINT RightShoulder
            {
              OFFSET 2.46616 -1.6653 3.69651
              CHANNELS 3 Zrotation Xrotation Yrotation
              JOINT RightArm
              {
                OFFSET 13.0012 0 0
                CHANNELS 3 Zrotation Xrotation Yrotation
                JOINT RightForeArm
                {
                  OFFSET 28.7848 1.52588e-005 0
                  CHANNELS 3 Zrotation Xrotation Yrotation
                  JOINT RightHand
                  {
                    OFFSET 26.5688 1.52588e-005 0
                    CHANNELS 3 Zrotation Xrotation Yrotation
                    End Site
                    {
                      OFFSET 0 0 0
                    }
                  }
                }
              }
            }
            JOINT LeftShoulder
            {
              OFFSET 2.38034 -1.29275 -3.7523
              CHANNELS 3 Zrotation Xrotation Yrotation
              JOINT LeftArm
              {
                OFFSET 16.3182 6.10351e-005 0
                CHANNELS 3 Zrotation Xrotation Yrotation
                JOINT LeftForeArm
                {
                  OFFSET 27.0901 0 0
                  CHANNELS 3 Zrotation Xrotation Yrotation
                  JOINT LeftHand
                  {
                    OFFSET 24.5451 1.52588e-005 0
                    CHANNELS 3 Zrotation Xrotation Yrotation
                    End Site
                    {
                      OFFSET 0 0 0
                    }
                  }
                }
              }
            }
            JOINT Neck
            {
              OFFSET 5.0226 -0.0266342 0
              CHANNELS 3 Zrotation Xrotation Yrotation
              JOINT Head
              {
                OFFSET 6.69364 2.86102e-005 0
                CHANNELS 3 Zrotation Xrotation Yrotation
                End Site
                {
                  OFFSET 0 0 0
                }
              }
            }
          }
        }
      }
    }
  }
}
MOTION
Frames:	6
Frame Time:	0.0333333
-13.5326 89.5454 7.94938 -92.1397 -12.6426 -92.6644 -170.737 19.5599 103.32 -24.6846 14.0412 -4.02168 57.8805 -6.01962 7.21067 29.7849 0.899 0.657031 169.005 10.3857 77.7502 -30.3936 1.82096 -2.51113 69.8088 -9.02506 -5.11307 41.5947 -7.20913 1.06537 -0.285119 7.10988 -89.2031 12.6485 -0.186154 1.61281 0.976485 -0.114995 1.61943 -21.5515 -0.6622 1.48235 -1.53884 -0.6622 1.48235 85.3869 -58.2429 -105.465 -8.65571 -44.444 -51.6551 -7.35931 2.3515 -111.321 -9.72692 -1.47703 -0.0138921 -97.2157 -57.6318 70.3507 48.5006 -67.6205 30.5512 2.13705 21.5128 -98.3607 28.7259 3.75708 1.83182 -24.7751 24.7508 20.3288 5.81639 27.3497 10.894 
-13.5922 89.4973 7.88564 -92.1677 -12.6887 -92.8301 -170.912 19.3798 103.236 -24.6422 14.7252 -3.97478 57.9141 -6.12356 7.50058 29.891 0.952158 0.797002 168.993 10.3685 77.6221 -30.5384 1.45417 -2.55244 69.9714 -9.29225 -5.39347 41.5465 -7.11189 0.714575 -0.655198 7.13653 -88.7402 12.6188 -0.699989 2.60384 0.945637 -0.584717 2.63209 -21.5751 -1.45003 2.27339 -1.56244 -1.45005 2.27339 81.2679 -61.8042 -109.962 -9.465 -44.6168 -54.2828 -7.67286 0.917216 -110.28 -10.496 -1.67124 0.309072 -89.1911 -51.8403 80.4786 41.1536 -67.65 27.3353 3.6922 20.631 -100.182 28.1399 3.70048 2.45702 -19.9579 28.0829 15.186 2.33205 29.4805 12.1022 
-13.6798 89.5045 7.78692 -92.0561 -12.8823 -92.8481 -171.12 19.5528 103.207 -24.703 14.0326 -3.86012 57.8551 -6.33291 7.22309 29.9909 1.1907 0.618127 168.983 10.4311 77.6738 -30.7284 0.862684 -2.50427 69.858 -9.22935 -6.08439 41.5482 -7.06603 0.490568 -0.885805 7.20135 -88.4737 12.4759 -1.0339 3.16461 0.801458 -0.893671 3.20698 -21.713 -1.93684 2.70812 -1.70033 -1.93686 2.70813 79.1722 -62.4492 -112.522 -7.89833 -43.5102 -56.0606 -6.48897 -0.539598 -109.349 -10.1592 -1.53855 1.24683 -85.5819 -47.3579 84.9687 34.4445 -68.7054 23.3429 4.28644 20.4175 -100.841 28.7671 3.8093 2.5525 -14.1428 30.4006 11.3377 -1.0825 30.5802 12.2698 
-13.7713 89.4737 7.67087 -91.9847 -13.1364 -92.7921 -171.132 19.607 103.282 -24.5337 13.8632 -3.80147 57.6816 -6.43795 6.84215 30.1651 1.49041 0.493144 168.953 10.3989 77.7965 -30.8309 0.702679 -2.43845 69.9455 -9.21568 -6.5716 41.5612 -7.10204 0.631284 -0.742742 7.26258 -88.7485 12.3516 -0.881872 2.59922 0.678226 -0.766633 2.63547 -21.8432 -1.62208 2.21432 -1.83049 -1.62208 2.21432 82.1941 -59.1709 -109.561 -5.03073 -42.4175 -54.8188 -5.76437 -0.675518 -109.37 -9.17934 -1.22691 2.05002 -87.9778 -50.2668 81.7999 34.899 -69.484 22.4519 3.98469 20.8504 -99.7114 29.3813 3.88548 2.1562 -14.4942 29.066 14.0668 -0.324825 29.2945 10.8834 
-13.8375 89.413 7.55176 -92.0018 -13.4697 -92.7706 -171.159 19.4609 103.322 -24.2261 14.7275 -3.71811 57.6748 -6.23468 6.98211 30.0533 1.2136 0.713229 168.913 10.3972 77.9145 -31.1243 0.918436 -2.40563 70.0456 -9.15418 -6.75796 41.634 -7.14926 0.676364 -0.782114 7.27188 -88.7875 12.335 -0.978565 2.53157 0.661841 -0.866227 2.57214 -21.8614 -1.69402 2.12072 -1.84876 -1.69401 2.12072 82.3655 -58.6101 -109.499 -4.45554 -42.3629 -54.7051 -6.20455 -0.66291 -109.221 -8.70774 -1.05649 2.68966 -87.9664 -50.4493 81.8552 33.8409 -70.0825 21.5744 4.14455 21.0848 -99.3088 29.2804 3.85024 1.8633 -14.4178 28.9785 14.3487 -0.334738 29.1926 10.9995 
-13.9028 89.4451 7.45868 -92.0547 -13.5497 -92.7811 -171.302 19.42 103.299 -24.2589 14.2011 -3.51997 57.5739 -6.32127 6.66263 29.9811 1.18827 0.599996 169.045 10.5945 78.0449 -31.6834 0.969742 -2.50496 69.7481 -8.76184 -6.85702 41.9832 -7.30914 0.572317 -0.756083 7.28296 -88.7982 12.3123 -0.932177 2.50452 0.639232 -0.8211 2.54309 -21.8839 -1.64164 2.10886 -1.87129 -1.64164 2.10886 82.5422 -58.7406 -109.219 -4.62216 -42.3417 -54.5521 -6.93498 -0.443841 -109.575 -8.57746 -0.973745 3.47108 -88.3399 -50.6185 81.3289 34.2344 -70.5101 21.6968 4.09135 21.5376 -99.0529 29.3154 3.85462 1.8467 -14.1971 28.8142 13.7064 -0.479661 29.0135 11.5117 
